Coordinates
version=1
nRows=17
nColumns=36
inDegrees=yes

Units are S.I. units (second, meters, Newtons, ...)
If the header above contains a line with 'inDegrees', this indicates whether rotational values are in degrees (yes) or radians (no).

endheader
time	pelvis_tilt	pelvis_list	pelvis_rotation	pelvis_tx	pelvis_ty	pelvis_tz	hip_flexion_r	hip_adduction_r	hip_rotation_r	knee_angle_r	knee_angle_r_beta	ankle_angle_r	subtalar_angle_r	mtp_angle_r	hip_flexion_l	hip_adduction_l	hip_rotation_l	knee_angle_l	knee_angle_l_beta	ankle_angle_l	subtalar_angle_l	mtp_angle_l	lumbar_extension	lumbar_bending	lumbar_rotation	arm_flex_r	arm_add_r	arm_rot_r	elbow_flex_r	pro_sup_r	arm_flex_l	arm_add_l	arm_rot_l	elbow_flex_l	pro_sup_l
      0.00000000	      4.98260609	     -0.13438169	     -2.25569530	      1.15226531	      0.98011441	      0.20498740	    -11.36866740	      6.21153029	      6.67144971	      0.46895829	      0.00818487	      8.24128504	      2.09583262	     -6.28476738	     32.93027611	     -4.03443043	      4.34296140	      9.96075087	      0.17384790	     -4.00970303	     -9.56845016	     -6.28476738	     -3.74949121	      5.18932545	     -6.39526272	     24.89045413	    -22.12239071	     45.20488067	    133.91404227	     70.71668899	     24.57867292	      6.54175882	     42.84248420	    126.91690931	     99.72297985
      0.01666670	      3.90792130	     -1.09804024	     -5.47878696	      1.15067187	      0.97611292	      0.20816915	    -10.64367725	      7.41180033	     14.10411663	      0.27420497	      0.00478578	      8.63923911	     -6.23541160	     -6.74202445	     33.48014868	     -7.41688965	      2.91455368	      6.64296014	      0.11594153	      4.26595685	     -3.19163909	     -6.74202445	     -2.66467201	      8.81692623	     -5.83420613	     33.96153216	    -22.11678839	     56.38156439	    133.73644424	     86.57687421	     26.04155446	      3.16508126	     39.38623238	    134.69286532	    106.32986917
      0.03333330	      3.82651667	      0.68019743	     -8.20283535	      1.14344643	      0.97819456	      0.21751152	    -10.17025042	      5.64152226	     14.53570918	      0.48911765	      0.00853671	      8.33487914	     -7.26504216	     -6.88145192	     33.01776243	     -7.88389925	     -1.15963433	      5.09008980	      0.08883883	      5.16540587	      0.27068615	     -6.88145192	     -2.38853633	      7.40479912	     -3.69099440	     35.10941331	    -19.08239598	     58.46750312	    131.44680526	     86.95295213	     27.55728639	      0.07918947	     39.90448095	    136.17505687	    104.38303617
      0.05000000	      3.05721748	      2.82041212	     -9.26815226	      1.14471137	      0.97811512	      0.22061557	     -8.71271878	      3.79892518	     13.94237012	      0.98641331	      0.01721616	      9.57127922	     -6.71967987	     -7.08701189	     34.41118682	     -6.91270914	     -2.33722074	      7.25058681	      0.12654661	      5.77443542	      0.63538261	     -7.08701189	     -0.61546048	      5.58148591	     -3.43805484	     35.16129307	    -16.21057581	     59.92458910	    128.87976978	     92.81796780	     27.38042564	     -1.91654599	     39.01834859	    137.40339374	    107.19904961
      0.06666670	      2.62608099	      4.85517109	     -9.68799619	      1.14437439	      0.97704113	      0.22275403	     -7.45373829	      2.06450731	     13.00759456	      1.80023689	      0.03142006	     10.24572826	     -5.99647503	     -7.25067932	     36.46415319	     -5.77361589	     -3.57042137	     11.11700005	      0.19402825	      6.37546066	      1.29896477	     -7.25067932	      0.37483092	      3.60630144	     -3.54661876	     35.50055021	    -14.03005967	     61.47856049	    127.08433325	     92.03921440	     27.73595132	     -3.61372494	     37.97536129	    138.41664080	    105.06102653
      0.08333330	      2.44829907	      6.72775228	     -9.82398564	      1.14457344	      0.97551254	      0.22393367	     -6.33675127	      0.39171880	     12.07256382	      2.91312896	      0.05084369	     10.79611461	     -5.58195140	     -7.33188603	     38.74920797	     -4.76770877	     -4.90284063	     15.42459657	      0.26921000	      6.51651967	      2.03512372	     -7.33188603	      0.99244122	      1.66735073	     -3.75859906	     35.56914609	    -12.45945139	     62.30752501	    125.97805250	     90.91644037	     28.26660618	     -4.94602663	     37.16842424	    138.92118753	    102.84293911
      0.10000000	      2.41658102	      8.09753081	     -9.81594709	      1.14391497	      0.97419789	      0.22504123	     -5.51802174	     -0.80615402	     11.39757478	      3.99432416	      0.06971411	     11.54220942	     -5.37465418	     -7.35019572	     40.59633083	     -4.10467507	     -6.12930406	     18.94938030	      0.33072908	      6.22117040	      2.72383776	     -7.35019572	      1.24445809	      0.20759101	     -3.43066027	     35.04063311	    -11.56605094	     62.14062178	    125.57370837	     89.60330819	     28.99956433	     -5.58990289	     37.10120202	    139.08462258	    101.29415031
      0.11666670	      2.56956593	      8.86882437	     -9.72613324	      1.14398820	      0.97366542	      0.22540226	     -5.08307748	     -1.40277342	     11.16893995	      4.97731223	      0.08687049	     12.24152284	     -5.78914241	     -7.41854206	     41.62271603	     -3.67139961	     -7.05603684	     21.34898388	      0.37261006	      5.56705754	      3.33272739	     -7.41854206	      1.14399493	     -0.54704594	     -3.53264802	     35.11018798	    -10.79668123	     62.29181436	    124.95280590	     91.37922452	     29.37001891	     -6.23553144	     36.88944911	    139.36501433	    102.32543184
      0.13333330	      2.65031568	      9.17220535	     -9.53791107	      1.14356205	      0.97353783	      0.22573291	     -4.75086628	     -1.54261365	     11.08165960	      5.84175888	      0.10195793	     12.78463520	     -6.37591606	     -7.42665299	     42.20412517	     -3.40302823	     -7.47523624	     22.79603872	      0.39786593	      4.54959307	      3.62587250	     -7.42665299	      1.06807960	     -0.88034686	     -3.53867398	     34.66364348	    -10.67205063	     61.98558704	    124.96017527	     89.66989186	     29.54517179	     -6.49177143	     36.65449086	    139.37532238	    100.26122174
      0.15000000	      2.85789220	      9.13154157	     -9.26566929	      1.14382252	      0.97409224	      0.22542484	     -4.78207776	     -1.40488956	     11.08264194	      6.32204211	      0.11034045	     13.09842293	     -6.81730295	     -7.45875459	     42.21381575	     -3.20190743	     -7.47150734	     23.31237217	      0.40687765	      3.52778340	      3.69710254	     -7.45875459	      0.78088006	     -0.73337796	     -4.16297032	     34.61882266	    -10.30942117	     62.29132049	    124.39748126	     89.53945745	     29.44882094	     -6.83883938	     36.83677445	    139.86632232	    100.51793136
      0.16666670	      3.01733751	      8.99417185	     -9.01738112	      1.14326994	      0.97468666	      0.22547955	     -4.82172012	     -1.14685507	     11.33136339	      6.58088456	      0.11485810	     13.13671883	     -7.56823278	     -7.46304378	     42.06496118	     -3.09227861	     -7.30692886	     23.36552548	      0.40780535	      2.58131370	      3.74598053	     -7.46304378	      0.50793197	     -0.60104614	     -4.24054171	     34.08677557	    -10.39701323	     62.21271499	    124.35974786	     88.50062769	     29.75593186	     -6.84824100	     37.48680176	    139.81754641	     99.53680175
      0.18333330	      3.07625668	      8.73932798	     -8.67895034	      1.14376358	      0.97514210	      0.22492045	     -4.82351344	     -0.77915710	     11.45741406	      6.83533629	      0.11929912	     13.16353979	     -8.04040905	     -7.47566706	     41.82768553	     -3.02482445	     -7.00501147	     23.25373026	      0.40585416	      2.06622823	      3.69858739	     -7.47566706	      0.26782854	     -0.34227080	     -4.30958660	     33.43078207	    -10.61774886	     61.84840402	    124.48034475	     90.07037038	     29.89924066	     -6.79829758	     38.39878812	    139.70127878	    100.76542275
      0.20000000	      3.17350705	      8.48878494	     -8.49247874	      1.14330706	      0.97552585	      0.22474863	     -5.02841143	     -0.48438203	     11.75242589	      6.63456020	      0.11579492	     13.00974926	     -8.45499343	     -7.47758378	     41.54391029	     -3.00624562	     -6.75123894	     22.90416640	      0.39975312	      1.93341773	      3.66030997	     -7.47758378	     -0.07534662	      0.01388242	     -4.37561436	     33.59323159	    -10.75696419	     62.12524594	    124.56713333	     89.07564327	     30.36081018	     -6.68576211	     39.43330994	    139.89526456	     99.49485710
      0.21666670	      3.25958662	      8.29263216	     -8.35814518	      1.14358810	      0.97582771	      0.22420553	     -5.29292243	     -0.29262775	     11.97939903	      6.32834177	      0.11045040	     12.79953484	     -8.73574279	     -7.47950456	     41.19550122	     -2.96782951	     -6.55787173	     22.38913022	      0.39076404	      1.98027475	      3.74984841	     -7.47950456	     -0.36213420	      0.26713904	     -4.55516100	     33.64511027	    -10.85586560	     62.71921200	    125.15443492	     88.43715758	     30.85605288	     -6.66549672	     40.40183828	    139.99877129	     98.81643709
      0.23333330	      3.20933928	      7.96406725	     -8.28180637	      1.13803086	      0.97560330	      0.22032498	     -5.14608886	      0.03614969	     12.05841530	      6.26585872	      0.10935987	     12.49520959	     -8.98188003	     -7.48003728	     41.18169192	     -3.01531857	     -6.43613650	     22.11698437	      0.38601420	      2.13293868	      4.05902449	     -7.48003728	     -0.80515219	      0.81529513	     -4.73873901	     34.21808992	    -11.06221684	     63.50489759	    125.88717068	     88.69519658	     31.55333885	     -6.63612809	     41.08333973	    140.24097051	     99.17916476
      0.25000000	      3.14548934	      7.83854226	     -8.36799112	      1.13856693	      0.97554065	      0.22005460	     -5.03218357	      0.15975712	     12.48161630	      6.19699540	      0.10815797	     12.29930177	     -9.36812519	     -7.48691133	     41.19317176	     -3.07034982	     -6.35603131	     21.95099845	      0.38311720	      2.21868161	      4.01490156	     -7.48691133	     -1.05926443	      1.10969199	     -4.74497007	     34.72388963	    -11.18836265	     63.56572162	    126.26599549	     89.37813452	     32.09894837	     -6.70636865	     41.71774209	    140.47558249	    101.21760275
      0.26666670	      3.17243726	      7.64099986	     -8.42736508	      1.13812838	      0.97560837	      0.22004693	     -4.96899695	      0.34866371	     12.62212951	      6.33838718	      0.11062573	     12.25001473	     -9.60327567	     -7.48747051	     41.06197282	     -3.19063938	     -6.25007952	     21.88606102	      0.38198383	      2.34479828	      4.02279030	     -7.48747051	     -1.37633713	      1.46121980	     -4.72516883	     35.16312630	    -11.22675468	     63.48604191	    126.26309868	     89.03812630	     32.70471215	     -6.62678033	     42.61694206	    140.71887767	    100.49898796
